<?xml version="1.0" encoding="UTF-8"?>
<svg version="1.1" xmlns="http://www.w3.org/2000/svg" width="102" height="100">
<path d="M0 0 C16.5 0 33 0 50 0 C50 16.17 50 32.34 50 49 C33.5 49 17 49 0 49 C0 32.83 0 16.66 0 0 Z " fill="#010101" transform="translate(0,0)"/>
<path d="M0 0 C3.62257814 1.98288488 6.43740014 4.17640044 7.6796875 8.203125 C7.78539063 8.79609375 7.89109375 9.3890625 8 10 C6.68 9.67 5.36 9.34 4 9 C4.99 10.485 4.99 10.485 6 12 C6.25760279 14.69452521 6.08900053 17.28548375 6 20 C4.66666667 20.66666667 3.33333333 21.33333333 2 22 C1.29875 22.37125 0.5975 22.7425 -0.125 23.125 C-2 24 -2 24 -4 24 C-4 27.96 -4 31.92 -4 36 C-4.66 36 -5.32 36 -6 36 C-6.66 32.04 -7.32 28.08 -8 24 C-9.65 23.67 -11.3 23.34 -13 23 C-12.67 22.01 -12.34 21.02 -12 20 C-13.65 20.33 -15.3 20.66 -17 21 C-17 17.33333333 -17 13.66666667 -17 10 C-17.99 10.33 -18.98 10.66 -20 11 C-18.84547893 6.63847597 -16.63821904 3.95399651 -13.19140625 1.18359375 C-8.91809041 -1.12445384 -4.66314868 -1.03929413 0 0 Z " fill="#C0B065" transform="translate(31,13)"/>
<path d="M0 0 C0.99 0.350625 1.98 0.70125 3 1.0625 C3.66 1.0625 4.32 1.0625 5 1.0625 C5.33 0.4025 5.66 -0.2575 6 -0.9375 C6.33 0.3825 6.66 1.7025 7 3.0625 C5.68 3.0625 4.36 3.0625 3 3.0625 C3 4.0525 3 5.0425 3 6.0625 C4.98 5.7325 6.96 5.4025 9 5.0625 C9.33 4.0725 9.66 3.0825 10 2.0625 C11.90401138 3.96651138 12.93520439 5.39675686 13.19921875 8.109375 C13.1886578 10.09483273 13.09915043 12.0794914 13 14.0625 C11.66666667 14.72916667 10.33333333 15.39583333 9 16.0625 C8.29875 16.43375 7.5975 16.805 6.875 17.1875 C5 18.0625 5 18.0625 3 18.0625 C3 22.0225 3 25.9825 3 30.0625 C2.34 30.0625 1.68 30.0625 1 30.0625 C0.34 26.1025 -0.32 22.1425 -1 18.0625 C-2.65 17.7325 -4.3 17.4025 -6 17.0625 C-5.67 16.4025 -5.34 15.7425 -5 15.0625 C-2.71484375 14.6484375 -2.71484375 14.6484375 0.0625 14.4375 C1.44115234 14.32535156 1.44115234 14.32535156 2.84765625 14.2109375 C3.91306641 14.13746094 3.91306641 14.13746094 5 14.0625 C4.67 12.4125 4.34 10.7625 4 9.0625 C1.03 8.5675 1.03 8.5675 -2 8.0625 C-1.67 6.7425 -1.34 5.4225 -1 4.0625 C-2.32 3.7325 -3.64 3.4025 -5 3.0625 C-5 2.0725 -5 1.0825 -5 0.0625 C-3 -0.9375 -3 -0.9375 0 0 Z " fill="#9EB587" transform="translate(24,18.9375)"/>
<path d="M0 0 C0.845625 0.61875 1.69125 1.2375 2.5625 1.875 C5.91372345 4.13047736 9.08856854 5.06125645 13 6 C13.38218767 7.65614657 13.71395102 9.32457024 14 11 C13 12 13 12 9.62109375 12.09765625 C8.22652923 12.09098369 6.83198257 12.07902532 5.4375 12.0625 C4.37112305 12.05573242 4.37112305 12.05573242 3.28320312 12.04882812 C1.52209987 12.03700864 -0.23896036 12.01907263 -2 12 C-2.05422947 10.5629191 -2.09289723 9.12524538 -2.125 7.6875 C-2.14820313 6.88699219 -2.17140625 6.08648437 -2.1953125 5.26171875 C-2 3 -2 3 0 0 Z " fill="#8EE6CB" transform="translate(16,22)"/>
<path d="M0 0 C3.77727089 1.81309003 7.37269822 3.9073259 11 6 C11 6.66 11 7.32 11 8 C10.2575 7.7525 9.515 7.505 8.75 7.25 C7.8425 7.1675 6.935 7.085 6 7 C4.64631404 8.31266518 3.31200404 9.64567325 2 11 C-0.25 10.75 -0.25 10.75 -2 10 C-1.67 9.01 -1.34 8.02 -1 7 C0.32 7 1.64 7 3 7 C2.67 6.01 2.34 5.02 2 4 C1.01 4.33 0.02 4.66 -1 5 C-0.67 3.35 -0.34 1.7 0 0 Z " fill="#B3A978" transform="translate(28,15)"/>
<path d="M0 0 C2.5625 0.1875 2.5625 0.1875 4.5625 2.1875 C4.1875 4.8125 4.1875 4.8125 3.5625 7.1875 C1.2525 7.1875 -1.0575 7.1875 -3.4375 7.1875 C-3.48004356 5.18795254 -3.47830783 3.18708364 -3.4375 1.1875 C-2.4375 0.1875 -2.4375 0.1875 0 0 Z " fill="#F6FBFA" transform="translate(25.4375,26.8125)"/>
<path d="M0 0 C0.99 0.350625 1.98 0.70125 3 1.0625 C3.66 1.0625 4.32 1.0625 5 1.0625 C5.33 0.4025 5.66 -0.2575 6 -0.9375 C6.33 0.3825 6.66 1.7025 7 3.0625 C5.68 3.0625 4.36 3.0625 3 3.0625 C2.67 4.3825 2.34 5.7025 2 7.0625 C1.01 6.7325 0.02 6.4025 -1 6.0625 C-1 5.4025 -1 4.7425 -1 4.0625 C-2.32 3.7325 -3.64 3.4025 -5 3.0625 C-5 2.0725 -5 1.0825 -5 0.0625 C-3 -0.9375 -3 -0.9375 0 0 Z " fill="#735B2F" transform="translate(24,18.9375)"/>
<path d="M0 0 C1.5 1.0625 1.5 1.0625 3 3 C3.1875 6.6875 3.1875 6.6875 3 10 C1.68 10 0.36 10 -1 10 C-1.12375 9.360625 -1.2475 8.72125 -1.375 8.0625 C-1.684375 7.0415625 -1.684375 7.0415625 -2 6 C-2.66 5.67 -3.32 5.34 -4 5 C-2.68 4.34 -1.36 3.68 0 3 C0 2.01 0 1.02 0 0 Z " fill="#90E8CA" transform="translate(33,21)"/>
<path d="M0 0 C2.97 0 5.94 0 9 0 C5 2 5 2 3 2 C3 5.96 3 9.92 3 14 C2.34 14 1.68 14 1 14 C0.67 9.38 0.34 4.76 0 0 Z " fill="#AB9244" transform="translate(24,35)"/>
<path d="M0 0 C0.70125 0.12375 1.4025 0.2475 2.125 0.375 C-2.83412807 5.51123978 -2.83412807 5.51123978 -5.875 7.375 C-6.865 7.045 -7.855 6.715 -8.875 6.375 C-3.7809081 0.49316193 -3.7809081 0.49316193 0 0 Z " fill="#EED65A" transform="translate(20.875,13.625)"/>
<path d="M0 0 C1.32 0.66 2.64 1.32 4 2 C3.34 3.65 2.68 5.3 2 7 C0.68 6.34 -0.64 5.68 -2 5 C-1.125 1.125 -1.125 1.125 0 0 Z " fill="#FCDE59" transform="translate(25,14)"/>
<path d="M0 0 C0.33 1.32 0.66 2.64 1 4 C-2 6 -2 6 -4.1875 5.625 C-4.785625 5.41875 -5.38375 5.2125 -6 5 C-5.67 4.01 -5.34 3.02 -5 2 C-2.4375 0.8125 -2.4375 0.8125 0 0 Z " fill="#F3E181" transform="translate(32,20)"/>
<path d="M0 0 C0.33 0 0.66 0 1 0 C1 1.98 1 3.96 1 6 C2.98 5.67 4.96 5.34 7 5 C5.1875 7 5.1875 7 3 9 C2.01 9 1.02 9 0 9 C0 6.03 0 3.06 0 0 Z " fill="#879566" transform="translate(14,25)"/>
<path d="M0 0 C0.66 0.99 1.32 1.98 2 3 C2.99 3.33 3.98 3.66 5 4 C5.33 4.99 5.66 5.98 6 7 C3.03 6.505 3.03 6.505 0 6 C-0.38218767 4.34385343 -0.71395102 2.67542976 -1 1 C-0.67 0.67 -0.34 0.34 0 0 Z " fill="#F2E992" transform="translate(18,19)"/>
<path d="M0 0 C3.24271506 0.5590888 4.93057424 1.4132178 7 4 C7 4.66 7 5.32 7 6 C4.50638429 4.79618552 2.31856917 3.54571278 0 2 C0 1.34 0 0.68 0 0 Z " fill="#EDD458" transform="translate(31,15)"/>
</svg>
